<svg fill="none" height="100%" width="100%" viewBox="0 0 720 720" xmlns:xlink="http://www.w3.org/1999/xlink" xmlns="http://www.w3.org/2000/svg"><g id="i0"><g transform="translate(360,360)"><g transform="rotate(0)"><animateTransform repeatCount="indefinite" type="rotate" attributeName="transform" dur="2.4s" begin="0s" calcMode="spline" values="0; 0; 7; 193; 176; 180; 180" keyTimes="0; 0.083333; 0.416666; 0.583333; 0.733334; 0.8; 1" keySplines="0 0 1 1; 0.185 1 0.575 0; 0.341 0.192 0.703 1; 0.167 0 0.703 1; 0.167 0 0.703 1; 0 0 1 1" fill="freeze" /><g transform="scale(1.44,1.44) translate(0,0)"><g transform="matrix(1,0,0,1,-0.237,75.839)" id="i1"><g id="i1"><path fill="#021a31" d="M-74.495,-9.31C-74.495,-9.31,74.495,-9.31,74.495,-9.31C74.495,-9.31,74.495,9.31,74.495,9.31C74.495,9.31,-74.495,9.31,-74.495,9.31C-74.495,9.31,-74.495,-9.31,-74.495,-9.31Z" /></g></g></g></g></g></g><g id="i0"><g transform="translate(360,360)"><g transform="rotate(0)"><animateTransform repeatCount="indefinite" type="rotate" attributeName="transform" dur="2.4s" begin="0s" calcMode="spline" values="0; 0; 7; 193; 176; 180; 180" keyTimes="0; 0.083333; 0.416666; 0.583333; 0.733334; 0.8; 1" keySplines="0 0 1 1; 0.185 1 0.575 0; 0.341 0.192 0.703 1; 0.167 0 0.703 1; 0.167 0 0.703 1; 0 0 1 1" fill="freeze" /><g transform="scale(1.44,1.44) translate(0,0)"><g id="i2"><path stroke-linejoin="round" stroke-width="12" stroke="#021a31" d="M-50.5,-54.51C-50.5,-54.51,-50.5,-71,-50.5,-71C-50.5,-71,50.5,-71,50.5,-71C50.5,-71,50.5,-54.51,50.5,-54.51C50.5,-46.01,40.95,-27.84,21.86,0C21.86,0,22.43,0.83,22.43,0.83C40.95,27.93,50.31,45.73,50.5,54.26C50.5,54.26,50.5,54.51,50.5,54.51C50.5,54.51,50.5,71,50.5,71C50.5,71,-50.5,71,-50.5,71C-50.5,71,-50.5,54.51,-50.5,54.51C-50.5,46.52,-41.88,29.18,-24.64,2.5C-24.64,2.5,-23.02,0,-23.02,0C-23.02,0,-24.64,-2.5,-24.64,-2.5C-41.88,-29.18,-50.5,-46.52,-50.5,-54.51Z" /></g></g></g></g></g><g id="i0"><g transform="translate(360,360)"><g transform="rotate(0)"><animateTransform repeatCount="indefinite" type="rotate" attributeName="transform" dur="2.4s" begin="0s" calcMode="spline" values="0; 0; 7; 193; 176; 180; 180" keyTimes="0; 0.083333; 0.416666; 0.583333; 0.733334; 0.8; 1" keySplines="0 0 1 1; 0.185 1 0.575 0; 0.341 0.192 0.703 1; 0.167 0 0.703 1; 0.167 0 0.703 1; 0 0 1 1" fill="freeze" /><g transform="scale(1.44,1.44) translate(0,0)"><g transform="matrix(1,0,0,1,-1.53,32.5)" visibility="visible" id="i3"><animate repeatCount="indefinite" begin="0s" calcMode="discrete" dur="2.4s" values="visible; hidden; hidden" keyTimes="0; 0.883; 1" attributeName="visibility" /><g id="i4"><path d="" /></g><g id="i5"><path d="M-18.39,25.5C-18.39,25.5,20.723,25.5,20.723,25.5C27.313,25.5,30.389,18.594,30.5,13.35C30,6.5,25.96,3.81,16.39,-6.14C13.58,-9.06,7.69,-14.375,-0.28,-14.5C-8.25,-14.625,-14.475,-8.26,-16.795,-5.98C-16.795,-5.98,-30.28,7.86,-30.5,13.18C-30.5,13.18,-30.5,13.35,-30.5,13.35C-30.5,20.06,-25.08,25.5,-18.39,25.5Z" fill="#ff5a5f"><animate repeatCount="indefinite" attributeName="d" dur="2.4s" begin="0s" calcMode="spline" values="M-18.39,25.5C-18.39,25.5,21.015,25.5,21.015,25.5C27.605,25.5,30.375,19.25,30.5,13.35C30.625,7.75,19.98,-11.87,10.41,-21.82C7.6,-24.74,-0.19,-25.5,-0.19,-25.5C-6.17,-25.5,-8.33,-24.27,-10.65,-21.99C-10.65,-21.99,-30.28,7.86,-30.5,13.18C-30.5,13.18,-30.5,13.35,-30.5,13.35C-30.5,20.06,-25.08,25.5,-18.39,25.5Z; M-18.39,25.5C-18.39,25.5,20.723,25.5,20.723,25.5C27.313,25.5,30.389,18.594,30.5,13.35C30,6.5,25.96,3.81,16.39,-6.14C13.58,-9.06,7.69,-14.375,-0.28,-14.5C-8.25,-14.625,-14.475,-8.26,-16.795,-5.98C-16.795,-5.98,-30.28,7.86,-30.5,13.18C-30.5,13.18,-30.5,13.35,-30.5,13.35C-30.5,20.06,-25.08,25.5,-18.39,25.5Z; M-18.39,25.5C-18.39,25.5,16.753,25.987,16.753,25.987C23.343,25.987,29.435,18.743,26.53,13.837C22.692,5.427,20.678,2.358,12.972,-9.051C6.149,-15.709,0.104,-25.574,-7.23,-22.451C-12.989,-19.999,-16.857,-13.408,-20.652,-6.377C-20.652,-6.377,-30.28,7.86,-30.5,13.18C-30.5,13.18,-30.5,13.35,-30.5,13.35C-30.5,20.06,-25.08,25.5,-18.39,25.5Z; M-15.709,24.889C-15.709,24.889,20.723,25.5,20.723,25.5C27.313,25.5,33.405,18.256,30.5,13.35C26.662,4.94,26.232,0.658,18.526,-10.751C11.703,-17.409,7.081,-23.695,-0.661,-21.798C-9.093,-19.732,-14.175,-14.019,-17.97,-6.988C-17.97,-6.988,-27.599,7.249,-27.819,12.569C-27.819,12.569,-27.819,12.739,-27.819,12.739C-27.819,19.449,-22.399,24.889,-15.709,24.889Z; M-26.717,26.233C-20.195,26.368,-4.125,27.171,2.736,24.462C9.133,21.763,17.968,19.305,21.011,11.794C23.739,3.101,24.792,-1.379,17.963,-13.07C13.095,-17.907,8.918,-24.112,-0.928,-23.139C-11.191,-22.08,-15.311,-16.207,-18.387,-11.491C-18.387,-11.491,-28.92,2.675,-29.14,7.995C-29.14,7.995,-26.494,1.895,-29.14,8.165C-31.786,14.435,-35.497,26.098,-26.717,26.233Z; M-23.11,18.54C-16.588,18.675,2.049,19.067,6.222,16.368C12.619,13.669,17.468,12.305,20.511,4.794C23.239,-3.899,24.792,-1.379,17.963,-13.07C13.095,-17.907,8.918,-24.112,-0.928,-23.139C-11.191,-22.08,-15.311,-16.207,-18.387,-11.491C-18.387,-11.491,-23.595,-5.75,-26.765,0.995C-26.765,0.995,-28.89,5.665,-28.89,5.665C-28.89,12.375,-31.89,18.405,-23.11,18.54Z; M-23.12,12.5C-12.67,16,3.52,8.875,8.857,7.25C14.194,5.625,24.785,0.275,24.72,-4.05C25.155,-7.625,23.405,-11.125,18.36,-16.14C15.55,-19.06,11.75,-24.5,-0.31,-24.5C-12.5,-24.5,-16.505,-18.51,-18.825,-16.23C-18.825,-16.23,-25.56,-8.64,-25.78,-3.32C-25.78,-3.32,-24.28,-7.15,-24.28,-7.15C-26.97,0,-33.57,9,-23.12,12.5Z; M-1.67,-24.25C-1.67,-24.25,-0.807,-24.375,-0.807,-24.375C-0.625,-24.25,-0.375,-23.125,-0.28,-23.525C-0.5,-23.375,0.437,-24.5,0.391,-24.39C0.281,-24.75,0.5,-24.625,-0.31,-24.5C-0.125,-24.5,0.031,-24.438,-0.294,-24.543C-0.294,-24.543,-0.75,-24.625,-1.03,-24.32C-1.03,-24.32,-1.405,-24.4,-1.405,-24.4C-1.5,-24.125,-1.5,-24.375,-1.67,-24.25Z; M-1.67,-24.25C-1.67,-24.25,-0.807,-24.375,-0.807,-24.375C-0.625,-24.25,-0.375,-23.125,-0.28,-23.525C-0.5,-23.375,0.437,-24.5,0.391,-24.39C0.281,-24.75,0.5,-24.625,-0.31,-24.5C-0.125,-24.5,0.031,-24.438,-0.294,-24.543C-0.294,-24.543,-0.75,-24.625,-1.03,-24.32C-1.03,-24.32,-1.405,-24.4,-1.405,-24.4C-1.5,-24.125,-1.5,-24.375,-1.67,-24.25Z" keyTimes="0; 0.083333; 0.416666; 0.5; 0.666667; 0.75; 0.85; 0.966667; 1" keySplines="0 0 1 1; 0 0 1 1; 0.167 0.167 0.833 1; 0.167 0 0.833 0.833; 0 0 1 1; 0.167 0.167 0.667 1; 1 0 0.971 1; 0 0 1 1" fill="freeze" /></path></g></g></g></g></g></g><g id="i0"><g transform="translate(360,360)"><g transform="rotate(0)"><animateTransform repeatCount="indefinite" type="rotate" attributeName="transform" dur="2.4s" begin="0s" calcMode="spline" values="0; 0; 7; 193; 176; 180; 180" keyTimes="0; 0.083333; 0.416666; 0.583333; 0.733334; 0.8; 1" keySplines="0 0 1 1; 0.185 1 0.575 0; 0.341 0.192 0.703 1; 0.167 0 0.703 1; 0.167 0 0.703 1; 0 0 1 1" fill="freeze" /><g transform="scale(1.44,1.44) translate(0,0)"><g transform="matrix(1,0,0,-1,-1.53,-33)" visibility="hidden" id="i6"><animate repeatCount="indefinite" begin="0s" calcMode="discrete" dur="2.4s" values="hidden; visible; visible" keyTimes="0; 0.883; 1" attributeName="visibility" /><g id="i4"><path d="" /></g><g id="i5"><path d="M-0.89,25.5C-0.89,25.5,3.223,25.5,3.223,25.5C9.813,25.5,6.639,25.594,6.75,20.35C6.25,13.5,7.03,16.125,5.815,7.985C5.217,3.977,7.615,9.125,-0.355,9C-8.325,8.875,-0.925,10.115,-3.245,12.395C-3.245,12.395,-4.78,10.61,-5,15.93C-5,15.93,-6,20.35,-6,20.35C-6,27.06,-7.58,25.5,-0.89,25.5Z" fill="#ff5a5f"><animate repeatCount="indefinite" attributeName="d" dur="2.4s" begin="0s" calcMode="spline" values="M-0.89,25.5C-0.89,25.5,3.223,25.5,3.223,25.5C9.813,25.5,6.639,25.594,6.75,20.35C6.25,13.5,7.03,16.125,5.815,7.985C5.217,3.977,7.615,9.125,-0.355,9C-8.325,8.875,-0.925,10.115,-3.245,12.395C-3.245,12.395,-4.78,10.61,-5,15.93C-5,15.93,-6,20.35,-6,20.35C-6,27.06,-7.58,25.5,-0.89,25.5Z; M-0.89,25.5C-0.89,25.5,3.223,25.5,3.223,25.5C9.813,25.5,6.639,25.594,6.75,20.35C6.25,13.5,7.03,16.125,5.815,7.985C5.217,3.977,7.615,9.125,-0.355,9C-8.325,8.875,-0.925,10.115,-3.245,12.395C-3.245,12.395,-4.78,10.61,-5,15.93C-5,15.93,-6,20.35,-6,20.35C-6,27.06,-7.58,25.5,-0.89,25.5Z; M-18.39,25.5C-18.39,25.5,20.723,25.5,20.723,25.5C27.313,25.5,30.389,18.594,30.5,13.35C30,6.5,25.96,3.81,16.39,-6.14C13.58,-9.06,7.69,-14.375,-0.28,-14.5C-8.25,-14.625,-14.475,-8.26,-16.795,-5.98C-16.795,-5.98,-30.28,7.86,-30.5,13.18C-30.5,13.18,-30.5,13.35,-30.5,13.35C-30.5,20.06,-25.08,25.5,-18.39,25.5Z" keyTimes="0; 0.966667; 1" keySplines="0 0 1 1; 0.167 0.167 0.667 1" fill="freeze" /></path></g></g></g></g></g></g><g id="i0"><g transform="translate(360,360)"><g transform="rotate(0)"><animateTransform repeatCount="indefinite" type="rotate" attributeName="transform" dur="2.4s" begin="0s" calcMode="spline" values="0; 0; 7; 193; 176; 180; 180" keyTimes="0; 0.083333; 0.416666; 0.583333; 0.733334; 0.8; 1" keySplines="0 0 1 1; 0.185 1 0.575 0; 0.341 0.192 0.703 1; 0.167 0 0.703 1; 0.167 0 0.703 1; 0 0 1 1" fill="freeze" /><g transform="scale(1.44,1.44) translate(0,0)"><g transform="matrix(1,0,0,1,-0.237,-75.448)" id="i7"><g id="i7"><path fill="#021a31" d="M-74.495,-9.31C-74.495,-9.31,74.495,-9.31,74.495,-9.31C74.495,-9.31,74.495,9.31,74.495,9.31C74.495,9.31,-74.495,9.31,-74.495,9.31C-74.495,9.31,-74.495,-9.31,-74.495,-9.31Z" /></g></g></g></g></g></g><g transform="matrix(1.44,0,0,1.44,360,347.04)" visibility="hidden" id="i8"><animate repeatCount="indefinite" begin="0s" calcMode="discrete" dur="2.4s" values="hidden; visible; visible" keyTimes="0; 0.583; 1" attributeName="visibility" /><g id="i9"><path d="M1.07,44.041C1.07,44.041,1,54.25,1,54.25" /></g><g id="i10"><path d="M1.25,1C1.25,1,1.25,0.5,1.25,0.5" stroke-linecap="round" stroke-width="14" stroke="#ff5a5f" fill="#021a31"><animate repeatCount="indefinite" attributeName="d" dur="2.4s" begin="0s" calcMode="spline" values="M1.25,1C1.25,1,1.25,0.5,1.25,0.5; M1.25,1C1.25,1,1.25,0.5,1.25,0.5; M1.236,3.52C1.236,3.52,1,56.5,1,56.5; M1.07,46.291C1.07,46.291,1,56.75,1,56.75" keyTimes="0; 0.666667; 0.95; 1" keySplines="0 0 1 1; 0 0 1 1; 0 0 1 1" fill="freeze" /></path></g></g><g id="i0"><g transform="translate(360,360)"><g transform="rotate(0)"><animateTransform repeatCount="indefinite" type="rotate" attributeName="transform" dur="2.4s" begin="0s" calcMode="spline" values="0; 0; 7; 193; 176; 180; 180" keyTimes="0; 0.083333; 0.416666; 0.583333; 0.733334; 0.8; 1" keySplines="0 0 1 1; 0.185 1 0.575 0; 0.341 0.192 0.703 1; 0.167 0 0.703 1; 0.167 0 0.703 1; 0 0 1 1" fill="freeze" /><g transform="scale(1.44,1.44) translate(0,0)"><g visibility="hidden" id="i11"><animate repeatCount="indefinite" begin="0s" calcMode="discrete" dur="2.4s" values="hidden; visible; hidden; hidden" keyTimes="0; 0.45; 0.833; 1" attributeName="visibility" /><g transform="translate(3.698,50.595)"><animateTransform repeatCount="indefinite" type="translate" attributeName="transform" dur="2.4s" begin="0s" calcMode="spline" values="3.698 50.595; 3.698 50.595; 27.839 52.739; 11.589 25.489; 11.589 25.489" keyTimes="0; 0.533333; 0.666667; 0.916667; 1" keySplines="0 0 1 1; 0.167 0.167 0.667 1; 0.333 0 0.833 0.833; 0 0 1 1" fill="freeze" /><g transform="rotate(-155.955) scale(1.5,1.5) translate(23.672,43.28)"><g id="i12" transform="matrix(1,0,0,1,-23.672,-43.28)"><rect ry="20" rx="20" height="9.485" width="9.485" y="-4.742" x="-4.742" stroke-width="14" stroke="#021a31" fill="#ff5a5f" /></g></g></g></g></g></g></g></g></svg>